<?xml version="1.0" standalone="no"?><!DOCTYPE svg PUBLIC "-//W3C//DTD SVG 1.1//EN" "http://www.w3.org/Graphics/SVG/1.1/DTD/svg11.dtd"><svg t="1618924724142" class="icon" viewBox="0 0 1024 1024" version="1.1" xmlns="http://www.w3.org/2000/svg" p-id="5394" xmlns:xlink="http://www.w3.org/1999/xlink" width="200" height="200"><defs><style type="text/css"></style></defs><path d="M992 896a32 32 0 1 1 0 64H32a32 32 0 1 1 0-64h960z m-155.84-478.656a25.6 25.6 0 0 1 35.456-7.36l120.32 78.848a25.6 25.6 0 0 1 0.256 42.624l-120.256 81.472A25.6 25.6 0 0 1 832 591.744V431.36a25.6 25.6 0 0 1 4.16-14.08zM736 480a32 32 0 1 1 0 64H32a32 32 0 0 1 0-64h704z m256-416a32 32 0 1 1 0 64H32a32 32 0 0 1 0-64h960z" p-id="5395" fill="#ffffff"></path></svg>