<?xml version="1.0" standalone="no"?><!DOCTYPE svg PUBLIC "-//W3C//DTD SVG 1.1//EN" "http://www.w3.org/Graphics/SVG/1.1/DTD/svg11.dtd"><svg t="1618924600300" class="icon" viewBox="0 0 1024 1024" version="1.1" xmlns="http://www.w3.org/2000/svg" p-id="5140" width="200" height="200" xmlns:xlink="http://www.w3.org/1999/xlink"><defs><style type="text/css"></style></defs><path d="M992 896a32 32 0 1 1 0 64H32a32 32 0 1 1 0-64h960zM187.84 417.344a25.6 25.6 0 0 1 4.16 14.08v160.32a25.6 25.6 0 0 1-39.936 21.12L31.744 531.52a25.6 25.6 0 0 1 0.384-42.624L152.32 409.984a25.6 25.6 0 0 1 35.456 7.36zM992 480a32 32 0 1 1 0 64h-704a32 32 0 0 1 0-64h704z m0-416a32 32 0 1 1 0 64H32a32 32 0 0 1 0-64h960z" p-id="5141" fill="#ffffff" stroke-width="20"></path></svg>