<?xml version="1.0" standalone="no"?><!DOCTYPE svg PUBLIC "-//W3C//DTD SVG 1.1//EN" "http://www.w3.org/Graphics/SVG/1.1/DTD/svg11.dtd"><svg t="1618470158104" class="icon" viewBox="0 0 1024 1024" version="1.1" xmlns="http://www.w3.org/2000/svg" p-id="1787" data-spm-anchor-id="a313x.7781069.0.i1" xmlns:xlink="http://www.w3.org/1999/xlink" width="200" height="200"><defs><style type="text/css"></style></defs><path d="M495.499 560.825l15.468 0c12.808 0 23.202 10.938 23.202 24.415l0 113.936c0 13.477-10.395 24.415-23.218 24.415l-15.468 0c-12.823 0-23.202-10.938-23.202-24.415L472.281 585.239C472.297 571.762 482.676 560.825 495.499 560.825zM750.723 479.442l0 293.564c0 17.628-13.859 31.967-30.936 31.967L286.679 804.973c-17.061 0-30.936-14.34-30.936-31.967L255.743 479.442 750.723 479.442M797.128 430.612 209.339 430.612l0 342.394c0 44.63 34.618 80.797 77.341 80.797l433.108 0c42.723 0 77.341-36.167 77.341-80.797L797.129 430.612 797.128 430.612zM735.255 430.612l-46.404 0 0-48.83c0-109.802-87.132-195.319-185.618-195.319-100.914 0-185.618 89.114-185.618 195.319l0 48.83-46.404 0 0-48.83c0-133.126 105.508-244.148 232.022-244.148 124.921 0 232.022 106.498 232.022 244.148L735.255 430.612z" p-id="1788" fill="#DCDFE6"></path></svg>